<mxfile host="app.diagrams.net" agent="Mozilla/5.0 (X11; Linux x86_64) AppleWebKit/537.36 (KHTML, like Gecko) Chrome/130.0.0.0 Safari/537.36" version="24.8.3">
  <diagram name="Page-1" id="e7e014a7-5840-1c2e-5031-d8a46d1fe8dd">
    <mxGraphModel dx="1080" dy="694" grid="1" gridSize="10" guides="1" tooltips="1" connect="1" arrows="1" fold="1" page="1" pageScale="1" pageWidth="1169" pageHeight="826" background="none" math="0" shadow="0">
      <root>
        <mxCell id="0" />
        <mxCell id="1" parent="0" />
        <mxCell id="2" value="Tampilkan menu utama" style="swimlane;whiteSpace=wrap" parent="1" vertex="1">
          <mxGeometry x="164.5" y="128" width="280" height="570" as="geometry" />
        </mxCell>
        <mxCell id="VI93jwYk5J-QaJLLHs_X-51" style="edgeStyle=orthogonalEdgeStyle;rounded=0;orthogonalLoop=1;jettySize=auto;html=1;entryX=0.5;entryY=0;entryDx=0;entryDy=0;" edge="1" parent="2" source="5" target="7">
          <mxGeometry relative="1" as="geometry" />
        </mxCell>
        <mxCell id="5" value="" style="ellipse;shape=startState;fillColor=#000000;strokeColor=none;" parent="2" vertex="1">
          <mxGeometry x="100" y="40" width="30" height="30" as="geometry" />
        </mxCell>
        <mxCell id="VI93jwYk5J-QaJLLHs_X-50" style="edgeStyle=orthogonalEdgeStyle;rounded=0;orthogonalLoop=1;jettySize=auto;html=1;entryX=0.5;entryY=0;entryDx=0;entryDy=0;" edge="1" parent="2" source="7" target="VI93jwYk5J-QaJLLHs_X-48">
          <mxGeometry relative="1" as="geometry" />
        </mxCell>
        <mxCell id="7" value="Tampilkan halaman&#xa;login" style="" parent="2" vertex="1">
          <mxGeometry x="60" y="110" width="110" height="50" as="geometry" />
        </mxCell>
        <mxCell id="VI93jwYk5J-QaJLLHs_X-49" style="edgeStyle=orthogonalEdgeStyle;rounded=0;orthogonalLoop=1;jettySize=auto;html=1;entryX=0;entryY=0.5;entryDx=0;entryDy=0;" edge="1" parent="2" source="VI93jwYk5J-QaJLLHs_X-48" target="7">
          <mxGeometry relative="1" as="geometry">
            <mxPoint x="25.5" y="142" as="targetPoint" />
            <Array as="points">
              <mxPoint x="26" y="222" />
              <mxPoint x="26" y="135" />
            </Array>
          </mxGeometry>
        </mxCell>
        <mxCell id="VI93jwYk5J-QaJLLHs_X-53" style="edgeStyle=orthogonalEdgeStyle;rounded=0;orthogonalLoop=1;jettySize=auto;html=1;entryX=0.5;entryY=0;entryDx=0;entryDy=0;" edge="1" parent="2" source="VI93jwYk5J-QaJLLHs_X-48" target="VI93jwYk5J-QaJLLHs_X-52">
          <mxGeometry relative="1" as="geometry" />
        </mxCell>
        <mxCell id="VI93jwYk5J-QaJLLHs_X-48" value="Login&lt;div&gt;berhasil?&lt;/div&gt;" style="rhombus;whiteSpace=wrap;html=1;" vertex="1" parent="2">
          <mxGeometry x="75" y="182" width="80" height="80" as="geometry" />
        </mxCell>
        <mxCell id="VI93jwYk5J-QaJLLHs_X-52" value="Tampilkan halaman&#xa;utama" style="" vertex="1" parent="2">
          <mxGeometry x="60" y="322" width="110" height="50" as="geometry" />
        </mxCell>
        <mxCell id="VI93jwYk5J-QaJLLHs_X-54" value="Tampilkan menu utama" style="swimlane;whiteSpace=wrap" vertex="1" parent="1">
          <mxGeometry x="445" y="128" width="280" height="570" as="geometry" />
        </mxCell>
        <mxCell id="VI93jwYk5J-QaJLLHs_X-55" style="edgeStyle=orthogonalEdgeStyle;rounded=0;orthogonalLoop=1;jettySize=auto;html=1;entryX=0.5;entryY=0;entryDx=0;entryDy=0;" edge="1" parent="VI93jwYk5J-QaJLLHs_X-54" source="VI93jwYk5J-QaJLLHs_X-56" target="VI93jwYk5J-QaJLLHs_X-58">
          <mxGeometry relative="1" as="geometry" />
        </mxCell>
        <mxCell id="VI93jwYk5J-QaJLLHs_X-56" value="" style="ellipse;shape=startState;fillColor=#000000;strokeColor=none;" vertex="1" parent="VI93jwYk5J-QaJLLHs_X-54">
          <mxGeometry x="100" y="40" width="30" height="30" as="geometry" />
        </mxCell>
        <mxCell id="VI93jwYk5J-QaJLLHs_X-57" style="edgeStyle=orthogonalEdgeStyle;rounded=0;orthogonalLoop=1;jettySize=auto;html=1;entryX=0.5;entryY=0;entryDx=0;entryDy=0;" edge="1" parent="VI93jwYk5J-QaJLLHs_X-54" source="VI93jwYk5J-QaJLLHs_X-58" target="VI93jwYk5J-QaJLLHs_X-61">
          <mxGeometry relative="1" as="geometry" />
        </mxCell>
        <mxCell id="VI93jwYk5J-QaJLLHs_X-58" value="Tampilkan halaman&#xa;login" style="" vertex="1" parent="VI93jwYk5J-QaJLLHs_X-54">
          <mxGeometry x="60" y="110" width="110" height="50" as="geometry" />
        </mxCell>
        <mxCell id="VI93jwYk5J-QaJLLHs_X-59" style="edgeStyle=orthogonalEdgeStyle;rounded=0;orthogonalLoop=1;jettySize=auto;html=1;entryX=0;entryY=0.5;entryDx=0;entryDy=0;" edge="1" parent="VI93jwYk5J-QaJLLHs_X-54" source="VI93jwYk5J-QaJLLHs_X-61" target="VI93jwYk5J-QaJLLHs_X-58">
          <mxGeometry relative="1" as="geometry">
            <mxPoint x="25.5" y="142" as="targetPoint" />
            <Array as="points">
              <mxPoint x="26" y="222" />
              <mxPoint x="26" y="135" />
            </Array>
          </mxGeometry>
        </mxCell>
        <mxCell id="VI93jwYk5J-QaJLLHs_X-60" style="edgeStyle=orthogonalEdgeStyle;rounded=0;orthogonalLoop=1;jettySize=auto;html=1;entryX=0.5;entryY=0;entryDx=0;entryDy=0;" edge="1" parent="VI93jwYk5J-QaJLLHs_X-54" source="VI93jwYk5J-QaJLLHs_X-61" target="VI93jwYk5J-QaJLLHs_X-62">
          <mxGeometry relative="1" as="geometry" />
        </mxCell>
        <mxCell id="VI93jwYk5J-QaJLLHs_X-61" value="Login&lt;div&gt;berhasil?&lt;/div&gt;" style="rhombus;whiteSpace=wrap;html=1;" vertex="1" parent="VI93jwYk5J-QaJLLHs_X-54">
          <mxGeometry x="75" y="182" width="80" height="80" as="geometry" />
        </mxCell>
        <mxCell id="VI93jwYk5J-QaJLLHs_X-62" value="Tampilkan halaman&#xa;utama" style="" vertex="1" parent="VI93jwYk5J-QaJLLHs_X-54">
          <mxGeometry x="60" y="322" width="110" height="50" as="geometry" />
        </mxCell>
      </root>
    </mxGraphModel>
  </diagram>
</mxfile>
